<svg xmlns="http://www.w3.org/2000/svg" version="1.1" xmlns:xlink="http://www.w3.org/1999/xlink" xmlns:svgjs="http://svgjs.dev/svgjs" width="2000" height="1500" viewBox="0 0 2000 1500"><rect width="2000" height="1500" fill="#000000"></rect><g transform="matrix(0.75,0,0,0.75,249.090909090909,313.7737437677588)"><svg viewBox="0 0 396 247" data-background-color="#000000" preserveAspectRatio="xMidYMid meet" height="1247" width="2000" xmlns="http://www.w3.org/2000/svg" xmlns:xlink="http://www.w3.org/1999/xlink"><g id="tight-bounds" transform="matrix(1,0,0,1,0.2400000000000091,-0.09999999999999432)"><svg viewBox="0 0 395.52 247.2" height="247.2" width="395.52"><rect width="395.52" height="247.2" fill="url(#d03aeff7-3522-4d42-a306-b59600b7d8e2)" mask="url(#4717ecd3-bfe4-43c5-8bba-b47271447e81)" data-fill-palette-color="tertiary"></rect><g><svg></svg></g><g><svg viewBox="0 0 395.52 247.2" height="247.2" width="395.52"><g transform="matrix(1,0,0,1,75.54432,55.55030937599999)"><svg viewBox="0 0 244.43135999999998 136.09938124800001" height="136.09938124800001" width="244.43135999999998"><g><svg viewBox="0 0 244.43135999999998 136.09938124800001" height="136.09938124800001" width="244.43135999999998"><g><svg viewBox="0 0 244.43135999999998 136.09938124800001" height="136.09938124800001" width="244.43135999999998"><g><svg viewBox="0 0 244.43135999999998 136.09938124800001" height="136.09938124800001" width="244.43135999999998"><g id="textblocktransform"><svg viewBox="0 0 244.43135999999998 136.09938124800001" height="136.09938124800001" width="244.43135999999998" id="textblock"><g><svg viewBox="0 0 244.43135999999998 136.09938124800001" height="136.09938124800001" width="244.43135999999998"><g transform="matrix(1,0,0,1,0,0)"><svg width="244.43135999999998" viewBox="2 -34.8 62.5 34.8" height="136.09938124800001" data-palette-color="url(#20f121c6-4ce7-4bea-bbbb-625458019b3d)"></svg></g></svg></g></svg></g></svg></g><g></g></svg></g></svg></g></svg></g><g><path d="M127.755 23.421A122.216 122.216 0 0 1 267.765 23.421L255.492 23.421A109.942 109.942 0 0 0 140.028 23.421L127.755 23.421M127.755 223.779A122.216 122.216 0 0 0 267.765 223.779L255.492 223.779A109.942 109.942 0 0 1 140.028 223.779L127.755 223.779" fill="url(#d03aeff7-3522-4d42-a306-b59600b7d8e2)" stroke="transparent" data-fill-palette-color="tertiary"></path></g></svg></g><defs></defs><mask id="c6ffec47-a95f-4611-a671-d2beffedc794"><g id="SvgjsG6355"><svg viewBox="0 0 395.52 247.2" height="247.2" width="395.52"><g><svg></svg></g><g><svg viewBox="0 0 395.52 247.2" height="247.2" width="395.52"><g transform="matrix(1,0,0,1,75.54432,55.55030937599999)"><svg viewBox="0 0 244.43135999999998 136.09938124800001" height="136.09938124800001" width="244.43135999999998"><g><svg viewBox="0 0 244.43135999999998 136.09938124800001" height="136.09938124800001" width="244.43135999999998"><g><svg viewBox="0 0 244.43135999999998 136.09938124800001" height="136.09938124800001" width="244.43135999999998"><g><svg viewBox="0 0 244.43135999999998 136.09938124800001" height="136.09938124800001" width="244.43135999999998"><g id="SvgjsG6354"><svg viewBox="0 0 244.43135999999998 136.09938124800001" height="136.09938124800001" width="244.43135999999998" id="SvgjsSvg6353"><g><svg viewBox="0 0 244.43135999999998 136.09938124800001" height="136.09938124800001" width="244.43135999999998"><g transform="matrix(1,0,0,1,0,0)"><svg width="244.43135999999998" viewBox="2 -34.8 62.5 34.8" height="136.09938124800001" data-palette-color="url(#20f121c6-4ce7-4bea-bbbb-625458019b3d)"><path d="M26.1-34.8L31-34.8 18.7-12.7 18.7 0 14.3 0 14.3-12.7 2-34.8 7.15-34.8 16.5-17.4 26.1-34.8ZM64.5 0L59.2 0 52.15-13.65 51.65-13.65 43.65-13.65 43.65 0 39.25 0 39.25-34.8 51.05-34.8Q57.3-34.8 60.35-32.18 63.4-29.55 63.4-24.5L63.4-24.5Q63.4-20.75 61.75-18.15 60.1-15.55 56.9-14.45L56.9-14.45 64.5 0ZM51.1-17.8Q55-17.8 56.82-19.33 58.65-20.85 58.65-24.5L58.65-24.5Q58.65-27.85 56.82-29.23 55-30.6 51.05-30.6L51.05-30.6 43.65-30.6 43.65-17.8 51.1-17.8Z" opacity="1" transform="matrix(1,0,0,1,0,0)" fill="white" class="wordmark-text-0" id="SvgjsPath6352"></path></svg></g></svg></g></svg></g></svg></g><g></g></svg></g></svg></g></svg></g><g><path d="M127.755 23.421A122.216 122.216 0 0 1 267.765 23.421L255.492 23.421A109.942 109.942 0 0 0 140.028 23.421L127.755 23.421M127.755 223.779A122.216 122.216 0 0 0 267.765 223.779L255.492 223.779A109.942 109.942 0 0 1 140.028 223.779L127.755 223.779" fill="black" stroke="transparent"></path></g></svg></g><defs><mask></mask></defs></svg><rect width="395.52" height="247.2" fill="black" stroke="none" visibility="hidden"></rect></g></mask><linearGradient x1="0" x2="1" y1="0.548" y2="0.55" id="20f121c6-4ce7-4bea-bbbb-625458019b3d"><stop stop-color="#ff6cab" offset="0"></stop><stop stop-color="#7366ff" offset="1"></stop></linearGradient><rect width="395.52" height="247.2" fill="url(#20f121c6-4ce7-4bea-bbbb-625458019b3d)" mask="url(#c6ffec47-a95f-4611-a671-d2beffedc794)" data-fill-palette-color="primary"></rect><mask id="4717ecd3-bfe4-43c5-8bba-b47271447e81"><g id="SvgjsG6378"><svg viewBox="0 0 395.52 247.2" height="247.2" width="395.52"><g><svg></svg></g><g><svg viewBox="0 0 395.52 247.2" height="247.2" width="395.52"><g transform="matrix(1,0,0,1,75.54432,55.55030937599999)"><svg viewBox="0 0 244.43135999999998 136.09938124800001" height="136.09938124800001" width="244.43135999999998"><g><svg viewBox="0 0 244.43135999999998 136.09938124800001" height="136.09938124800001" width="244.43135999999998"><g><svg viewBox="0 0 244.43135999999998 136.09938124800001" height="136.09938124800001" width="244.43135999999998"><g><svg viewBox="0 0 244.43135999999998 136.09938124800001" height="136.09938124800001" width="244.43135999999998"><g id="SvgjsG6377"><svg viewBox="0 0 244.43135999999998 136.09938124800001" height="136.09938124800001" width="244.43135999999998" id="SvgjsSvg6376"><g><svg viewBox="0 0 244.43135999999998 136.09938124800001" height="136.09938124800001" width="244.43135999999998"><g transform="matrix(1,0,0,1,0,0)"><svg width="244.43135999999998" viewBox="2 -34.8 62.5 34.8" height="136.09938124800001" data-palette-color="url(#20f121c6-4ce7-4bea-bbbb-625458019b3d)"></svg></g></svg></g></svg></g></svg></g><g></g></svg></g></svg></g></svg></g><g><path d="M127.755 23.421A122.216 122.216 0 0 1 267.765 23.421L255.492 23.421A109.942 109.942 0 0 0 140.028 23.421L127.755 23.421M127.755 223.779A122.216 122.216 0 0 0 267.765 223.779L255.492 223.779A109.942 109.942 0 0 1 140.028 223.779L127.755 223.779" fill="white" stroke="transparent"></path></g></svg></g><defs><mask></mask></defs><mask><g id="SvgjsG6375"><svg viewBox="0 0 395.52 247.2" height="247.2" width="395.52"><g><svg></svg></g><g><svg viewBox="0 0 395.52 247.2" height="247.2" width="395.52"><g transform="matrix(1,0,0,1,75.54432,55.55030937599999)"><svg viewBox="0 0 244.43135999999998 136.09938124800001" height="136.09938124800001" width="244.43135999999998"><g><svg viewBox="0 0 244.43135999999998 136.09938124800001" height="136.09938124800001" width="244.43135999999998"><g><svg viewBox="0 0 244.43135999999998 136.09938124800001" height="136.09938124800001" width="244.43135999999998"><g><svg viewBox="0 0 244.43135999999998 136.09938124800001" height="136.09938124800001" width="244.43135999999998"><g id="SvgjsG6374"><svg viewBox="0 0 244.43135999999998 136.09938124800001" height="136.09938124800001" width="244.43135999999998" id="SvgjsSvg6373"><g><svg viewBox="0 0 244.43135999999998 136.09938124800001" height="136.09938124800001" width="244.43135999999998"><g transform="matrix(1,0,0,1,0,0)"><svg width="244.43135999999998" viewBox="2 -34.8 62.5 34.8" height="136.09938124800001" data-palette-color="url(#20f121c6-4ce7-4bea-bbbb-625458019b3d)"><path d="M26.1-34.8L31-34.8 18.7-12.7 18.7 0 14.3 0 14.3-12.7 2-34.8 7.15-34.8 16.5-17.4 26.1-34.8ZM64.5 0L59.2 0 52.15-13.65 51.65-13.65 43.65-13.65 43.65 0 39.25 0 39.25-34.8 51.05-34.8Q57.3-34.8 60.35-32.18 63.4-29.55 63.4-24.5L63.4-24.5Q63.4-20.75 61.75-18.15 60.1-15.55 56.9-14.45L56.9-14.45 64.5 0ZM51.1-17.8Q55-17.8 56.82-19.33 58.65-20.85 58.65-24.5L58.65-24.5Q58.65-27.85 56.82-29.23 55-30.6 51.05-30.6L51.05-30.6 43.65-30.6 43.65-17.8 51.1-17.8Z" opacity="1" transform="matrix(1,0,0,1,0,0)" fill="black" class="wordmark-text-0" id="SvgjsPath6372"></path></svg></g></svg></g></svg></g></svg></g><g></g></svg></g></svg></g></svg></g><g><path d="M127.755 23.421A122.216 122.216 0 0 1 267.765 23.421L255.492 23.421A109.942 109.942 0 0 0 140.028 23.421L127.755 23.421M127.755 223.779A122.216 122.216 0 0 0 267.765 223.779L255.492 223.779A109.942 109.942 0 0 1 140.028 223.779L127.755 223.779" fill="black" stroke="transparent"></path></g></svg></g><defs><mask></mask></defs></svg><rect width="395.52" height="247.2" fill="black" stroke="none" visibility="hidden"></rect></g></mask></svg><rect width="395.52" height="247.2" fill="black" stroke="none" visibility="hidden"></rect></g></mask><linearGradient x1="0" x2="1" y1="0.548" y2="0.55" id="d03aeff7-3522-4d42-a306-b59600b7d8e2"><stop stop-color="#ff6cab" offset="0"></stop><stop stop-color="#7366ff" offset="1"></stop></linearGradient></svg><rect width="395.52" height="247.2" fill="none" stroke="none" visibility="hidden"></rect></g></svg></g></svg>